<!-- Generator: Adobe Illustrator 16.0.0, SVG Export Plug-In . SVG Version: 6.00 Build 0)  -->
<!DOCTYPE svg PUBLIC "-//W3C//DTD SVG 1.1//EN" "http://www.w3.org/Graphics/SVG/1.1/DTD/svg11.dtd">
<svg class="404" version="1.1" id="Layer_1" xmlns="http://www.w3.org/2000/svg" xmlns:xlink="http://www.w3.org/1999/xlink" x="0px" y="0px"
	 width="378.239px" height="211.239px" viewBox="0 0 378.239 211.239" enable-background="new 0 0 378.239 211.239"
	 xml:space="preserve">
<g>
	<g>
		<path fill="#ffffff" d="M11.262,211.132c-2.763,0-5.047-0.646-6.853-1.938C2.603,207.9,1.133,206.228,0,204.173l2.284-1.434
			c0.566,0.955,1.159,1.806,1.779,2.55c0.62,0.743,1.292,1.363,2.019,1.858c0.726,0.497,1.522,0.869,2.391,1.116
			c0.867,0.248,1.85,0.372,2.948,0.372c1.134,0,2.196-0.212,3.188-0.638c0.991-0.425,1.851-1.054,2.577-1.887
			c0.725-0.831,1.292-1.867,1.7-3.107c0.407-1.239,0.611-2.673,0.611-4.303v-25.287h2.763v25.075c0,2.16-0.311,4.056-0.93,5.684
			c-0.62,1.629-1.443,2.958-2.47,3.984c-0.992,0.993-2.134,1.736-3.427,2.231C14.139,210.885,12.75,211.132,11.262,211.132z"/>
		<path fill="#ffffff" d="M47.386,211.185c-2.231,0-4.276-0.345-6.136-1.035c-1.859-0.691-3.471-1.718-4.834-3.081
			c-1.364-1.362-2.417-3.036-3.161-5.021c-0.744-1.983-1.115-4.285-1.115-6.906v-21.728h2.762v21.463
			c0,4.427,1.106,7.836,3.32,10.226c2.213,2.391,5.303,3.586,9.271,3.586c1.876,0,3.577-0.283,5.1-0.85
			c1.522-0.565,2.824-1.416,3.905-2.55c1.08-1.134,1.913-2.55,2.497-4.251c0.584-1.7,0.876-3.665,0.876-5.896v-21.728h2.762v21.41
			c0,2.655-0.372,5.002-1.116,7.038c-0.743,2.036-1.789,3.745-3.133,5.126c-1.347,1.381-2.949,2.427-4.809,3.135
			C51.716,210.83,49.652,211.185,47.386,211.185z"/>
		<path fill="#ffffff" d="M85.689,211.132c-2.975,0-5.658-0.496-8.049-1.486c-2.39-0.991-4.701-2.479-6.933-4.463l1.807-2.072
			c1.027,0.957,2.045,1.779,3.055,2.47c1.009,0.691,2.045,1.258,3.107,1.701c1.062,0.442,2.178,0.778,3.347,1.01
			c1.168,0.23,2.443,0.345,3.825,0.345c1.381,0,2.656-0.186,3.825-0.558c1.169-0.373,2.16-0.886,2.975-1.541
			c0.815-0.654,1.452-1.435,1.913-2.338c0.46-0.903,0.691-1.886,0.691-2.948v-0.105c0-0.991-0.151-1.877-0.452-2.656
			c-0.301-0.779-0.85-1.488-1.647-2.126c-0.797-0.637-1.868-1.213-3.214-1.727c-1.347-0.513-3.081-0.982-5.206-1.408
			c-2.231-0.458-4.144-0.999-5.737-1.619s-2.895-1.346-3.905-2.178c-1.009-0.832-1.745-1.798-2.205-2.896
			c-0.46-1.099-0.69-2.355-0.69-3.772v-0.105c0-1.382,0.3-2.665,0.903-3.852c0.602-1.187,1.435-2.223,2.497-3.108
			c1.062-0.884,2.319-1.574,3.771-2.071c1.452-0.496,3.045-0.744,4.781-0.744c2.691,0,5.021,0.372,6.986,1.115
			c1.966,0.744,3.886,1.879,5.764,3.401l-1.753,2.177c-1.771-1.522-3.551-2.603-5.339-3.239c-1.789-0.639-3.71-0.957-5.764-0.957
			c-1.381,0-2.629,0.186-3.745,0.558c-1.116,0.371-2.072,0.876-2.869,1.515c-0.796,0.638-1.408,1.381-1.833,2.231
			c-0.425,0.85-0.637,1.753-0.637,2.708v0.107c0,0.991,0.15,1.886,0.451,2.682c0.301,0.798,0.85,1.523,1.647,2.179
			s1.903,1.248,3.32,1.779c1.416,0.531,3.222,1.028,5.418,1.487c4.321,0.886,7.438,2.135,9.35,3.746
			c1.913,1.611,2.869,3.781,2.869,6.507v0.106c0,1.487-0.311,2.86-0.93,4.117c-0.62,1.259-1.47,2.33-2.55,3.214
			c-1.081,0.887-2.373,1.577-3.877,2.072C89.15,210.885,87.495,211.132,85.689,211.132z"/>
		<path fill="#ffffff" d="M117.403,175.911h-12.962v-2.497h28.687v2.497h-12.962v34.69h-2.762V175.911z"/>
		<path fill="#ffffff" d="M141.894,173.414h2.762v37.188h-2.762V173.414z"/>
		<path fill="#ffffff" d="M156.076,173.414h2.604l25.659,32.353v-32.353h2.657v37.188h-2.072l-26.19-33.043v33.043h-2.657V173.414z"
			/>
		<path fill="#ffffff" d="M230.821,211.239c-2.656,0-5.118-0.497-7.384-1.488c-2.268-0.991-4.223-2.347-5.871-4.063
			c-1.646-1.718-2.93-3.746-3.851-6.083c-0.922-2.337-1.382-4.835-1.382-7.49v-0.107c0-2.62,0.47-5.1,1.408-7.437
			c0.938-2.338,2.231-4.383,3.879-6.136c1.646-1.753,3.602-3.134,5.869-4.144c2.266-1.01,4.746-1.515,7.438-1.515
			c1.664,0,3.169,0.143,4.516,0.426c1.346,0.283,2.595,0.69,3.745,1.222s2.231,1.16,3.241,1.885c1.01,0.727,1.991,1.533,2.948,2.418
			l-1.967,2.019c-0.814-0.778-1.664-1.505-2.549-2.179c-0.886-0.672-1.833-1.248-2.843-1.727c-1.009-0.477-2.106-0.857-3.293-1.142
			c-1.188-0.283-2.471-0.426-3.852-0.426c-2.231,0-4.303,0.426-6.216,1.276c-1.912,0.851-3.567,2.027-4.968,3.532
			c-1.398,1.506-2.496,3.268-3.292,5.286c-0.798,2.019-1.196,4.196-1.196,6.534v0.105c0,2.339,0.406,4.525,1.223,6.562
			c0.812,2.036,1.92,3.808,3.319,5.312c1.399,1.507,3.055,2.693,4.967,3.561c1.913,0.868,3.984,1.301,6.216,1.301
			c2.691,0,5.028-0.495,7.013-1.486c1.983-0.991,3.913-2.426,5.79-4.304l1.859,1.806c-0.992,0.957-2.01,1.833-3.055,2.631
			c-1.044,0.796-2.16,1.479-3.347,2.044c-1.187,0.567-2.47,1.01-3.852,1.329C233.956,211.079,232.45,211.239,230.821,211.239z"/>
		<path fill="#ffffff" d="M253.187,173.414h2.763v17.266h23.799v-17.266h2.763v37.188h-2.763v-17.426h-23.799v17.426h-2.763V173.414
			z"/>
		<path fill="#ffffff" d="M293.932,173.414h2.763v37.188h-2.763V173.414z"/>
		<path fill="#ffffff" d="M324.955,211.239c-2.656,0-5.118-0.497-7.384-1.488c-2.268-0.991-4.224-2.347-5.871-4.063
			c-1.646-1.718-2.93-3.746-3.851-6.083c-0.922-2.337-1.382-4.835-1.382-7.49v-0.107c0-2.62,0.47-5.1,1.408-7.437
			c0.938-2.338,2.231-4.383,3.879-6.136c1.646-1.753,3.602-3.134,5.869-4.144c2.266-1.01,4.746-1.515,7.438-1.515
			c1.664,0,3.169,0.143,4.516,0.426c1.346,0.283,2.595,0.69,3.745,1.222s2.231,1.16,3.241,1.885c1.01,0.727,1.991,1.533,2.948,2.418
			l-1.967,2.019c-0.814-0.778-1.664-1.505-2.549-2.179c-0.886-0.672-1.833-1.248-2.843-1.727c-1.009-0.477-2.106-0.857-3.293-1.142
			c-1.188-0.283-2.472-0.426-3.852-0.426c-2.231,0-4.303,0.426-6.216,1.276c-1.912,0.851-3.568,2.027-4.968,3.532
			c-1.398,1.506-2.496,3.268-3.292,5.286c-0.798,2.019-1.196,4.196-1.196,6.534v0.105c0,2.339,0.406,4.525,1.223,6.562
			c0.812,2.036,1.92,3.808,3.319,5.312c1.398,1.507,3.055,2.693,4.967,3.561c1.913,0.868,3.984,1.301,6.216,1.301
			c2.691,0,5.028-0.495,7.013-1.486c1.983-0.991,3.913-2.426,5.79-4.304l1.859,1.806c-0.992,0.957-2.01,1.833-3.055,2.631
			c-1.044,0.796-2.16,1.479-3.347,2.044c-1.187,0.567-2.47,1.01-3.852,1.329C328.09,211.079,326.584,211.239,324.955,211.239z"/>
		<path fill="#ffffff" d="M347.321,173.414h2.763v24.438l23.692-24.438h3.772l-16.256,16.416l16.946,20.771h-3.613l-15.299-18.807
			l-9.243,9.351v9.456h-2.763V173.414z"/>
	</g>
	<g>
		<g>
			<path fill="none" stroke="#ffffff" stroke-width="0.5751" d="M86.962,99.649c5.608,7.884,11.001,12.666,18.894,12.666
				c8.095,0,13.495-6.645,13.495-16.823V5.176h9.468v65.338c0,3.824,0.125,29.003-0.766,32.554
				c-2.516,11.958-11.486,17.468-21.45,17.468c-11.879,0-19.393-6.065-25.994-15.531l-6.351,5.354
				c7.596,11.048,17.23,18.4,33.095,18.4c11.836,0,21.606-7.934,25.593-13.945c4.963-7.757,5.339-30.626,5.339-38.262V5.176h9.472
				V82.59c0,11.463,0.014,29.148-8.098,38.938c-7.459,9.004-17.856,15.449-31.562,15.449c-19.846,0-31.597-8.634-40.196-21.262
				l-6.351,5.356c9.593,14.201,23.461,24.129,47.296,24.129c15.572,0,27.727-6.445,36.252-15.991
				c8.138-9.106,12.129-25.3,12.129-40.584V5.176h9.466v89.489c0,19.099-4.363,32.185-15.159,42.979
				c-9.967,9.961-24.499,15.779-41.939,15.779c-27.824,0-43.809-11.21-54.4-26.995"/>
		</g>
		<g>
			<path fill="none" stroke="#ffffff" stroke-width="0.5751" d="M281.505,63.314c-5.396-10.387-13.084-17.649-26.368-17.649
				c-16.405,0-27.199,14.323-27.199,31.764v0.417c0,18.896,11.21,32.183,27.199,32.183c13.7,0,21.388-7.474,27.405-18.273
				l8.013,4.527c-7.267,12.956-17.478,22.462-35.668,22.462c-20.846,0-36.836-16.692-36.836-40.818v-0.416
				c0-22.63,15.409-40.57,37.212-40.57c17.022,0,27.485,8.927,34.255,21.676l8.013-4.693c-8.138-15.113-21.382-25.705-42.142-25.705
				c-27.206,0-47.22,21.553-47.22,49.376v0.417c0,29.356,20.767,49.457,46.467,49.457c22.675,0,35.424-11.545,43.937-26.662
				l8.013,4.528c-9.756,17.275-25.04,30.853-52.199,30.853c-30.562,0-56.1-23.508-56.1-58.096v-0.417
				c0-33.012,24.625-58.175,57.222-58.175c24.498,0,40.529,12.244,50.04,29.733l8.013-4.693
				c-10.88-19.852-29.691-33.759-57.928-33.759c-37.999,0-67.231,28.776-67.231,66.977v0.413c0,39.827,30.316,66.742,65.739,66.742
				c31.645,0,49.452-15.62,60.457-35.051l8.018,4.528c-12.246,21.589-32.603,39.236-68.727,39.236
				c-40.277,0-75.368-30.317-75.368-75.366v-0.416c0-43.399,33.843-75.785,77.238-75.785c31.976,0,53.568,15.572,65.819,37.788"/>
		</g>
	</g>
</g>
</svg>
